<svg xmlns="http://www.w3.org/2000/svg" viewBox="0 0 48 48"><title>15-idea</title><g id="_15-idea" data-name="15-idea"><path d="M40,33H34a1,1,0,0,1-1-1V28.9A1,1,0,0,0,32.4,28a11,11,0,1,1,9.195,0,1,1,0,0,0-.6.908V32A1,1,0,0,1,40,33Zm-5-2h4V28.9a3.015,3.015,0,0,1,1.762-2.724A9,9,0,0,0,43,11.292a9,9,0,1,0-9.759,14.887A3.014,3.014,0,0,1,35,28.9Z"/><path d="M38,39H36a3,3,0,0,1-3-3V32a1,1,0,0,1,1-1h6a1,1,0,0,1,1,1v4A3,3,0,0,1,38,39Zm-3-6v3a1,1,0,0,0,1,1h2a1,1,0,0,0,1-1V33Z"/><rect x="34" y="34" width="6" height="2"/><path d="M24,48a7,7,0,0,1-6.322-4.008A7.008,7.008,0,0,1,11,37v-.071a7.015,7.015,0,0,1-5.964-6.214,6.994,6.994,0,0,1,0-13.429A7.013,7.013,0,0,1,11,11.071V11a7.01,7.01,0,0,1,6.678-6.993A7.006,7.006,0,0,1,24,0a6.006,6.006,0,0,1,6,6H28a4,4,0,0,0-4-4,5,5,0,0,0-4.714,3.349.976.976,0,0,1-1,.667l-.1-.007c-.06,0-.12-.009-.182-.009a5.006,5.006,0,0,0-5,5,4.9,4.9,0,0,0,.077.836,1.007,1.007,0,0,1-.227.82,1.028,1.028,0,0,1-.775.348l-.1,0A5,5,0,0,0,7,18a1.1,1.1,0,0,1-.831,1.076,4.993,4.993,0,0,0,0,9.849,1,1,0,0,1,.835,1c0,.015,0,.087,0,.1A5,5,0,0,0,12,35a1.093,1.093,0,0,1,.81.353,1.024,1.024,0,0,1,.267.81A4.923,4.923,0,0,0,13,37a5.006,5.006,0,0,0,5,5c.062,0,.122-.005.182-.009l.1-.007a1,1,0,0,1,1,.667A5,5,0,0,0,24,46a4,4,0,0,0,4-4,1,1,0,0,1,1-1h6a1,1,0,0,0,1-1V38h2v2a3,3,0,0,1-3,3H29.917A6.01,6.01,0,0,1,24,48Z"/><path d="M12,25a7.008,7.008,0,0,1-7-7H7a5.006,5.006,0,0,0,5,5Z"/><path d="M18,44a7.008,7.008,0,0,1-7-7h2a5,5,0,1,0,5-5V30a7,7,0,0,1,0,14Z"/><path d="M18,18V16a5,5,0,1,0-5-5H11a7,7,0,1,1,7,7Z"/><path d="M38,32H36V19a1,1,0,0,1,1-1h3a1,1,0,0,0,1-1V16h2v1a3,3,0,0,1-3,3H38Z"/><path d="M37,20H34a3,3,0,0,1-3-3V16h2v1a1,1,0,0,0,1,1h3Z"/><rect x="18" y="35" width="2" height="2"/><rect x="16" y="37" width="2" height="2"/><rect x="13" y="16" width="2" height="2"/><rect x="11" y="18" width="2" height="2"/><rect x="23" y="23" width="2" height="2"/><rect x="21" y="25" width="2" height="2"/></g></svg>